<svg height="1022" width="720" xmlns="http://www.w3.org/2000/svg">
<rect height="1022" fill="#555" width="720"></rect>
<text fill="#7f7" font-family="Courier New" font-size="12" xml:space="preserve">
<tspan x="10" y="26">└─┬ doiuse@2.6.0 </tspan>
<tspan x="10" y="42">  ├─┬ browserslist@1.7.7 </tspan>
<tspan x="10" y="58">  │ └── electron-to-chromium@1.3.2 </tspan>
<tspan x="10" y="74">  ├── caniuse-db@1.0.30000649 </tspan>
<tspan x="10" y="90">  ├─┬ css-rule-stream@1.1.0 </tspan>
<tspan x="10" y="106">  │ └─┬ css-tokenize@1.0.1 </tspan>
<tspan x="10" y="122">  │   └── inherits@2.0.3 </tspan>
<tspan x="10" y="138">  ├─┬ duplexer2@0.0.2 </tspan>
<tspan x="10" y="154">  │ └─┬ readable-stream@1.1.14 </tspan>
<tspan x="10" y="170">  │   ├── core-util-is@1.0.2 </tspan>
<tspan x="10" y="186">  │   ├── isarray@0.0.1 </tspan>
<tspan x="10" y="202">  │   └── string_decoder@0.10.31 </tspan>
<tspan x="10" y="218">  ├─┬ jsonfilter@1.1.2 </tspan>
<tspan x="10" y="234">  │ ├─┬ JSONStream@0.8.4 </tspan>
<tspan x="10" y="250">  │ │ ├── jsonparse@0.0.5 </tspan>
<tspan x="10" y="266">  │ │ └── through@2.3.8 </tspan>
<tspan x="10" y="282">  │ ├── minimist@1.2.0 </tspan>
<tspan x="10" y="298">  │ └─┬ stream-combiner@0.2.2 </tspan>
<tspan x="10" y="314">  │   └── duplexer@0.1.1 </tspan>
<tspan x="10" y="330">  ├─┬ ldjson-stream@1.2.1 </tspan>
<tspan x="10" y="346">  │ └── split2@0.2.1 </tspan>
<tspan x="10" y="362">  ├── lodash@4.17.4 </tspan>
<tspan x="10" y="378">  ├─┬ multimatch@2.1.0 </tspan>
<tspan x="10" y="394">  │ ├── array-differ@1.0.0 </tspan>
<tspan x="10" y="410">  │ ├─┬ array-union@1.0.2 </tspan>
<tspan x="10" y="426">  │ │ └── array-uniq@1.0.3 </tspan>
<tspan x="10" y="442">  │ ├── arrify@1.0.1 </tspan>
<tspan x="10" y="458">  │ └─┬ minimatch@3.0.3 </tspan>
<tspan x="10" y="474">  │   └─┬ brace-expansion@1.1.6 </tspan>
<tspan x="10" y="490">  │     ├── balanced-match@0.4.2 </tspan>
<tspan x="10" y="506">  │     └── concat-map@0.0.1 </tspan>
<tspan x="10" y="522">  ├─┬ postcss@5.2.16 </tspan>
<tspan x="10" y="538">  │ ├─┬ chalk@1.1.3 </tspan>
<tspan x="10" y="554">  │ │ ├── ansi-styles@2.2.1 </tspan>
<tspan x="10" y="570">  │ │ ├── escape-string-regexp@1.0.5 </tspan>
<tspan x="10" y="586">  │ │ ├─┬ has-ansi@2.0.0 </tspan>
<tspan x="10" y="602">  │ │ │ └── ansi-regex@2.1.1 </tspan>
<tspan x="10" y="618">  │ │ ├── strip-ansi@3.0.1 </tspan>
<tspan x="10" y="634">  │ │ └── supports-color@2.0.0 </tspan>
<tspan x="10" y="650">  │ ├── js-base64@2.1.9 </tspan>
<tspan x="10" y="666">  │ ├── source-map@0.5.6 </tspan>
<tspan x="10" y="682">  │ └─┬ supports-color@3.2.3 </tspan>
<tspan x="10" y="698">  │   └── has-flag@1.0.0 </tspan>
<tspan x="10" y="714">  ├─┬ source-map@0.4.4 </tspan>
<tspan x="10" y="730">  │ └── amdefine@1.0.1 </tspan>
<tspan x="10" y="746">  ├─┬ through2@0.6.5 </tspan>
<tspan x="10" y="762">  │ ├── readable-stream@1.0.34 </tspan>
<tspan x="10" y="778">  │ └── xtend@4.0.1 </tspan>
<tspan x="10" y="794">  └─┬ yargs@3.32.0 </tspan>
<tspan x="10" y="810">    ├── camelcase@2.1.1 </tspan>
<tspan x="10" y="826">    ├─┬ cliui@3.2.0 </tspan>
<tspan x="10" y="842">    │ └── wrap-ansi@2.1.0 </tspan>
<tspan x="10" y="858">    ├── decamelize@1.2.0 </tspan>
<tspan x="10" y="874">    ├─┬ os-locale@1.4.0 </tspan>
<tspan x="10" y="890">    │ └─┬ lcid@1.0.0 </tspan>
<tspan x="10" y="906">    │   └── invert-kv@1.0.0 </tspan>
<tspan x="10" y="922">    ├─┬ string-width@1.0.2 </tspan>
<tspan x="10" y="938">    │ ├── code-point-at@1.1.0 </tspan>
<tspan x="10" y="954">    │ └─┬ is-fullwidth-code-point@1.0.0 </tspan>
<tspan x="10" y="970">    │   └── number-is-nan@1.0.1 </tspan>
<tspan x="10" y="986">    ├── window-size@0.1.4 </tspan>
<tspan x="10" y="1002">    └── y18n@3.2.1</tspan>
</text>
</svg>
